# xmcd CD database file
#
# Track frame offsets:
#	150
#	54017
#	80791
#	117923
#	164787
#	172218
#	189807
#	240665
#
# Disc length: 3668 seconds
#
# Revision: 2
# Processed by: cddbd v1.4b41PL1 Copyright (c) Steve Scherf et al.
# Submitted via: Feurio! 1.52 - http://www.feurio.com
#
DISCID=660e5208
DTITLE=Jupiter Coyote - Live - Disk 2
DYEAR=1900
DGENRE=
TTITLE0=Rose Hill
TTITLE1=Inquire With Delight
TTITLE2=Lucky Day
TTITLE3=Cindi
TTITLE4=Jot
TTITLE5=Real Thing
TTITLE6=Willow
TTITLE7=Duelin' Banjost/Foggy Mtn.Breakdown
EXTD=
EXTT0=
EXTT1=
EXTT2=
EXTT3=
EXTT4=
EXTT5=
EXTT6=
EXTT7=
PLAYORDER=
